<?xml version="1.0" encoding="UTF-8" standalone="no"?>
<!DOCTYPE svg PUBLIC "-//W3C//DTD SVG 1.1//EN" "http://www.w3.org/Graphics/SVG/1.1/DTD/svg11.dtd">
<svg width="100%" height="100%" viewBox="0 0 59 46" version="1.1" xmlns="http://www.w3.org/2000/svg" xmlns:xlink="http://www.w3.org/1999/xlink" xml:space="preserve" xmlns:serif="http://www.serif.com/" style="fill-rule:evenodd;clip-rule:evenodd;stroke-linejoin:round;stroke-miterlimit:2;">
    <g transform="matrix(1,0,0,1,-42.7301,-8.64967)">
        <g transform="matrix(1,0,0,1,30.7302,3.72487)">
            <path d="M64.734,31.07C64.063,31.043 63.386,31.07 62.71,31.07C59.96,31.07 59.96,31.07 60.02,28.276C60.138,25.045 59.556,21.827 58.314,18.841C57.073,15.856 55.201,13.174 52.826,10.979L52.826,10.951L52.331,10.511C49.858,8.342 46.94,6.741 43.781,5.822C40.623,4.902 37.301,4.686 34.05,5.189C30.799,5.692 27.698,6.902 24.965,8.732C22.232,10.563 19.933,12.971 18.231,15.786L18.193,15.846C18.077,16.044 17.956,16.242 17.846,16.44C15.656,20.314 14.67,24.753 15.014,29.189C15.058,29.926 15.564,31.015 14.068,31.12C12.775,31.208 11.807,31.851 12.033,33.32C12.258,34.788 13.386,34.97 14.645,34.97C16.598,34.931 18.556,34.97 20.508,34.97C21.762,34.97 22.664,35.476 22.708,36.801C22.747,38 21.982,38.666 20.8,38.682C19.331,38.682 18.374,39.359 18.49,40.838C18.605,42.318 19.815,42.488 21.064,42.455C24.567,42.428 28.071,42.422 31.58,42.455C32.872,42.455 33.829,43.005 33.752,44.507C33.681,45.876 32.795,46.311 31.552,46.305L25.079,46.305C23.709,46.305 22.367,46.377 22.362,48.175C22.356,49.974 23.715,50.034 25.079,50.029L56.423,50.029C57.71,50.029 58.777,49.792 58.816,48.258C58.86,46.608 57.716,46.278 56.374,46.311L45.049,46.311C43.779,46.311 42.937,45.761 42.899,44.441C42.86,43.121 43.735,42.549 44.967,42.461C45.368,42.428 45.775,42.461 46.177,42.461C47.409,42.461 48.558,42.323 48.657,40.767C48.767,39.117 47.667,38.726 46.303,38.721C45.06,38.655 44.34,37.929 44.34,36.829C44.34,35.58 45.159,34.904 46.474,34.942L64.679,34.942C66.004,34.942 66.956,34.524 67,33.045C67.044,31.565 65.999,31.125 64.734,31.07Z" style="fill:rgb(235,109,74);fill-rule:nonzero;"/>
            <circle cx="63.95" cy="40.562" r="1.854" style="fill:rgb(235,109,74);"/>
            <circle cx="68.626" cy="40.562" r="1.854" style="fill:rgb(235,109,74);"/>
            <rect x="63.76" y="38.708" width="4.981" height="3.709" style="fill:rgb(235,109,74);"/>
            <circle cx="53.024" cy="40.562" r="1.854" style="fill:rgb(235,109,74);"/>
            <circle cx="57.7" cy="40.562" r="1.854" style="fill:rgb(235,109,74);"/>
            <rect x="52.835" y="38.708" width="4.981" height="3.709" style="fill:rgb(235,109,74);"/>
        </g>
    </g>
</svg>
